<svg width="100" height="29" viewBox="0 0 100 29" fill="none" xmlns="http://www.w3.org/2000/svg">
<path d="M5.056 23C4.992 23 4.96 22.96 4.96 22.88L5.008 6.392C5.008 6.328 5.04 6.296 5.104 6.296H9.712C10.624 6.296 11.44 6.52 12.16 6.968C12.88 7.4 13.448 7.976 13.864 8.696C14.28 9.416 14.488 10.2 14.488 11.048C14.488 11.736 14.328 12.376 14.008 12.968C13.704 13.56 13.336 14.04 12.904 14.408C13.368 14.872 13.728 15.408 13.984 16.016C14.24 16.624 14.368 17.264 14.368 17.936C14.368 18.864 14.144 19.712 13.696 20.48C13.248 21.248 12.64 21.864 11.872 22.328C11.12 22.776 10.28 23 9.352 23H5.056ZM7.888 12.92H9.712C10.272 12.92 10.72 12.728 11.056 12.344C11.408 11.944 11.584 11.512 11.584 11.048C11.584 10.536 11.4 10.096 11.032 9.728C10.664 9.344 10.224 9.152 9.712 9.152H7.888V12.92ZM7.864 20.072H9.352C9.928 20.072 10.424 19.864 10.84 19.448C11.256 19.016 11.464 18.512 11.464 17.936C11.464 17.36 11.256 16.864 10.84 16.448C10.424 16.032 9.928 15.824 9.352 15.824H7.888L7.864 20.072ZM29.6528 23.24C28.7888 23.24 27.9968 23.024 27.2768 22.592C26.5728 22.144 26.0048 21.56 25.5728 20.84C25.1408 20.104 24.9248 19.296 24.9248 18.416L24.9488 10.808C24.9488 9.928 25.1568 9.128 25.5728 8.408C26.0048 7.688 26.5808 7.112 27.3008 6.68C28.0208 6.248 28.8048 6.032 29.6528 6.032C30.5168 6.032 31.3008 6.248 32.0048 6.68C32.7088 7.112 33.2688 7.688 33.6848 8.408C34.1168 9.128 34.3328 9.928 34.3328 10.808L34.3568 18.416C34.3568 19.296 34.1408 20.104 33.7088 20.84C33.2928 21.56 32.7248 22.144 32.0048 22.592C31.3008 23.024 30.5168 23.24 29.6528 23.24ZM29.6528 20.336C30.1328 20.336 30.5488 20.144 30.9008 19.76C31.2688 19.36 31.4528 18.912 31.4528 18.416L31.4288 10.808C31.4288 10.28 31.2608 9.832 30.9248 9.464C30.5888 9.096 30.1648 8.912 29.6528 8.912C29.1568 8.912 28.7328 9.096 28.3808 9.464C28.0288 9.816 27.8528 10.264 27.8528 10.808V18.416C27.8528 18.944 28.0288 19.4 28.3808 19.784C28.7328 20.152 29.1568 20.336 29.6528 20.336ZM65.6766 23C65.5486 23 65.4846 22.944 65.4846 22.832L65.4606 6.488C65.4606 6.36 65.5246 6.296 65.6526 6.296H67.8126L71.8686 15.752L71.7486 6.488C71.7486 6.36 71.8206 6.296 71.9646 6.296H74.3406C74.4366 6.296 74.4846 6.36 74.4846 6.488L74.5086 22.856C74.5086 22.952 74.4686 23 74.3886 23H72.2766L68.1246 14.168L68.2926 22.808C68.2926 22.936 68.2206 23 68.0766 23H65.6766ZM85.8334 23C85.7534 23 85.7134 22.96 85.7134 22.88L85.7614 6.392C85.7614 6.328 85.7934 6.296 85.8574 6.296L90.3454 6.272C91.2254 6.256 92.0254 6.464 92.7454 6.896C93.4814 7.328 94.0654 7.912 94.4974 8.648C94.9294 9.368 95.1454 10.168 95.1454 11.048V17.936C95.1454 18.864 94.9214 19.712 94.4734 20.48C94.0254 21.232 93.4254 21.832 92.6734 22.28C91.9214 22.728 91.0734 22.96 90.1294 22.976L85.8334 23ZM88.6414 20.048H90.1294C90.7214 20.048 91.2174 19.84 91.6174 19.424C92.0334 19.008 92.2414 18.512 92.2414 17.936V11.024C92.2414 10.512 92.0494 10.072 91.6654 9.704C91.2974 9.32 90.8574 9.136 90.3454 9.152L88.6654 9.176L88.6414 20.048Z" fill="white"/>
<path d="M49.7176 23.24C48.8696 23.24 48.0856 23.024 47.3656 22.592C46.6456 22.144 46.0696 21.552 45.6376 20.816C45.2216 20.08 45.0136 19.272 45.0136 18.392L45.0616 6.392C45.0616 6.328 45.0936 6.296 45.1576 6.296H47.8456C47.9096 6.296 47.9416 6.328 47.9416 6.392V18.392C47.9416 18.936 48.1096 19.4 48.4456 19.784C48.7976 20.152 49.2216 20.336 49.7176 20.336C50.2296 20.336 50.6536 20.152 50.9896 19.784C51.3416 19.4 51.5176 18.936 51.5176 18.392V6.392C51.5176 6.328 51.5496 6.296 51.6136 6.296H54.3016C54.3656 6.296 54.3976 6.328 54.3976 6.392L54.4456 18.392C54.4456 19.288 54.2296 20.104 53.7976 20.84C53.3816 21.576 52.8136 22.16 52.0936 22.592C51.3896 23.024 50.5976 23.24 49.7176 23.24Z" fill="#E7943A"/>
</svg>
